<svg aria-hidden="true" style="position:absolute;width:0;height:0" xmlns="http://www.w3.org/2000/svg" overflow="hidden"><defs><symbol id="next" viewBox="0 0 32 32"><path d="M16 .732L31.268 16 16 31.268l-2.679-2.679 10.625-10.714H.732v-3.75h23.214L13.321 3.411 16 .732z"/></symbol><symbol id="back" viewBox="0 0 32 32"><path d="M31.268 14.125v3.75H8.054l10.625 10.714L16 31.268.732 16 16 .732l2.679 2.679L8.054 14.125h23.214z"/></symbol><symbol id="plus" viewBox="0 0 32 32"><path d="M11.82 6.82h-5v5H5.18v-5h-5V5.18h5v-5h1.64v5h5v1.64z"/></symbol><symbol id="close" viewBox="0 0 32 32"><path d="M32 3.221L19.221 16 32 28.779 28.779 32 16 19.221 3.221 32 0 28.779 12.779 16 0 3.221 3.221 0 16 12.779 28.779 0 32 3.221z"/></symbol><symbol id="help" viewBox="0 0 32 32"><path fill="var(--color2, #58667c)" d="M20.643 14.857c.952-.952 1.429-2.095 1.429-3.429 0-1.667-.595-3.095-1.786-4.286S17.667 5.356 16 5.356c-1.667 0-3.095.595-4.286 1.786s-1.786 2.619-1.786 4.286h3c0-.81.309-1.524.929-2.143S15.19 8.356 16 8.356c.809 0 1.524.31 2.143.929s.929 1.333.929 2.143c0 .809-.309 1.524-.929 2.143L16.286 15.5c-1.191 1.286-1.786 2.714-1.786 4.286v.786h3c0-1.571.595-3 1.786-4.286l1.357-1.429zM17.5 26.643v-3h-3v3h3zM5.214 5.286c3-3 6.595-4.5 10.786-4.5s7.762 1.5 10.714 4.5c3 2.952 4.5 6.524 4.5 10.714s-1.5 7.786-4.5 10.786C23.762 29.738 20.19 31.215 16 31.215s-7.786-1.476-10.786-4.429C2.262 23.786.785 20.191.785 16S2.261 8.238 5.214 5.286z"/></symbol></defs></svg>